HIERARCHY
ROOT Hips
{
	OFFSET 0.00000 0.00000 0.00000
	CHANNELS 6 Xposition Yposition Zposition Zrotation Yrotation Xrotation 
	JOINT LHipJoint
	{
		OFFSET 0 0 0
		CHANNELS 3 Zrotation Yrotation Xrotation
		JOINT LeftUpLeg
		{
			OFFSET 1.82298 -1.58346 0.87084
			CHANNELS 3 Zrotation Yrotation Xrotation
			JOINT LeftLeg
			{
				OFFSET 2.43790 -6.69809 0.00000
				CHANNELS 3 Zrotation Yrotation Xrotation
				JOINT LeftFoot
				{
					OFFSET 2.59288 -7.12389 0.00000
					CHANNELS 3 Zrotation Yrotation Xrotation
					JOINT LeftToeBase
					{
						OFFSET 0.14552 -0.39981 2.13160
						CHANNELS 3 Zrotation Yrotation Xrotation
						End Site
						{
							OFFSET 0.00000 -0.00000 1.09427
						}
					}
				}
			}
		}
	}
	JOINT RHipJoint
	{
		OFFSET 0 0 0
		CHANNELS 3 Zrotation Yrotation Xrotation
		JOINT RightUpLeg
		{
			OFFSET -1.77229 -1.58346 0.87084
			CHANNELS 3 Zrotation Yrotation Xrotation
			JOINT RightLeg
			{
				OFFSET -2.50703 -6.88801 0.00000
				CHANNELS 3 Zrotation Yrotation Xrotation
				JOINT RightFoot
				{
					OFFSET -2.61620 -7.18796 0.00000
					CHANNELS 3 Zrotation Yrotation Xrotation
					JOINT RightToeBase
					{
						OFFSET -0.15190 -0.41735 2.15974
						CHANNELS 3 Zrotation Yrotation Xrotation
						End Site
						{
							OFFSET -0.00000 -0.00000 1.10919
						}
					}
				}
			}
		}
	}
	JOINT LowerBack
	{
		OFFSET 0 0 0
		CHANNELS 3 Zrotation Yrotation Xrotation
		JOINT Spine
		{
			OFFSET -0.03602 2.12423 -0.30249
			CHANNELS 3 Zrotation Yrotation Xrotation
			JOINT Spine1
			{
				OFFSET 0.02717 2.10043 0.12912
				CHANNELS 3 Zrotation Yrotation Xrotation
				JOINT Neck
				{
					OFFSET 0 0 0
					CHANNELS 3 Zrotation Yrotation Xrotation
					JOINT Neck1
					{
						OFFSET -0.06371 1.88656 0.11602
						CHANNELS 3 Zrotation Yrotation Xrotation
						JOINT Head
						{
							OFFSET 0.08208 1.87759 -0.11505
							CHANNELS 3 Zrotation Yrotation Xrotation
							End Site
							{
								OFFSET 0.03382 1.93090 -0.05483
							}
						}
					}
				}
				JOINT LeftShoulder
				{
					OFFSET 0 0 0
					CHANNELS 3 Zrotation Yrotation Xrotation
					JOINT LeftArm
					{
						OFFSET 3.30903 1.40357 0.20156
						CHANNELS 3 Zrotation Yrotation Xrotation
						JOINT LeftForeArm
						{
							OFFSET 5.43301 -0.00000 0.00000
							CHANNELS 3 Zrotation Yrotation Xrotation
							JOINT LeftHand
							{
								OFFSET 3.15936 -0.00000 0.00000
								CHANNELS 3 Zrotation Yrotation Xrotation
								JOINT LeftFingerBase
								{
									OFFSET 0 0 0
									CHANNELS 3 Zrotation Yrotation Xrotation
									JOINT LeftHandIndex1
									{
										OFFSET 0.71283 -0.00000 0.00000
										CHANNELS 3 Zrotation Yrotation Xrotation
										End Site
										{
											OFFSET 0.57470 -0.00000 0.00000
										}
									}
								}
								JOINT LThumb
								{
									OFFSET 0 0 0
									CHANNELS 3 Zrotation Yrotation Xrotation
									End Site
									{
										OFFSET 0.58347 -0.00000 0.58347
									}
								}
							}
						}
					}
				}
				JOINT RightShoulder
				{
					OFFSET 0 0 0
					CHANNELS 3 Zrotation Yrotation Xrotation
					JOINT RightArm
					{
						OFFSET -3.12947 1.60037 -0.00464
						CHANNELS 3 Zrotation Yrotation Xrotation
						JOINT RightForeArm
						{
							OFFSET -5.34194 -0.00000 0.00000
							CHANNELS 3 Zrotation Yrotation Xrotation
							JOINT RightHand
							{
								OFFSET -3.19351 -0.00000 0.00000
								CHANNELS 3 Zrotation Yrotation Xrotation
								JOINT RightFingerBase
								{
									OFFSET 0 0 0
									CHANNELS 3 Zrotation Yrotation Xrotation
									JOINT RightHandIndex1
									{
										OFFSET -0.74386 -0.00000 0.00000
										CHANNELS 3 Zrotation Yrotation Xrotation
										End Site
										{
											OFFSET -0.59972 -0.00000 0.00000
										}
									}
								}
								JOINT RThumb
								{
									OFFSET 0 0 0
									CHANNELS 3 Zrotation Yrotation Xrotation
									End Site
									{
										OFFSET -0.60888 -0.00000 0.60888
									}
								}
							}
						}
					}
				}
			}
		}
	}
}
MOTION
Frames: 12
Frame Time: .0083333
-0.3132 13.5082 -36.4636 0 0 0 0 0 0 -21 0 0 0 0 0 0 0 0 0 0 0 0 0 0 21 0 0 0 0 0 0 0 0 0 0 0 0 0 0 0 0 0 0 0 0 0 0 -16 0 0 21 0 0 11 0 0 0 -8 0 0 0 0 0 0 0 0 0 0 0 0 0 0 0 0 0 0 0 0 8 0 0 0 0 0 0 0 0 0 0 0 0 0 0 0 0 0
-0.3132 13.5082 -36.4636 -19.1869 -28.0265 11.7830 0.0000 0.0000 0.0000 12.9614 13.3413 -71.8328 15.9180 19.5957 77.9874 -0.1152 -9.3909 -4.2692 0.0248 1.0157 2.7920 0.0000 0.0000 0.0000 12.7217 -10.0526 10.5228 -3.4847 -11.4412 33.7827 -0.6761 -19.4070 -32.1446 -2.0292 8.9265 -25.5658 7.1786 0.8322 10.4373 5.8294 2.4083 -1.3756 1.7563 0.9879 -7.3185 1.4128 7.1911 -2.7854 2.5694 9.3790 6.0152 0.8376 4.7682 2.3080 0.0000 -0.0000 0.0000 -66.9102 -35.9929 21.3768 13.2547 -21.6592 -2.5465 -0.0000 -0.0000 43.8839 14.2660 12.8662 3.2405 -7.1250 0.0000 -0.0000 -11.8002 42.9304 0.6118 0.0000 -0.0000 0.0000 64.5059 -39.7042 59.5947 -126.7866 54.2121 -91.2389 0.0000 -0.0000 -43.9141 -2.6053 -16.7359 0.7507 7.1250 -0.0000 -0.0000 23.3477 -45.3445 -0.2102
-0.3169 13.5077 -36.4546 -19.2366 -28.1237 11.8806 0.0000 0.0000 0.0000 13.0071 13.4157 -71.8711 15.9418 19.6005 78.0581 -0.1091 -9.3124 -4.3295 0.0212 0.9403 2.5844 0.0000 0.0000 0.0000 12.7322 -9.9598 10.5294 -3.4696 -11.4190 33.7062 -0.7170 -19.2258 -32.1942 -2.0148 8.8969 -25.4733 7.2261 0.8624 10.3770 5.8392 2.4495 -1.3911 1.7346 1.0064 -7.2986 1.4129 7.1892 -2.7384 2.5322 9.3805 5.9773 0.8227 4.7674 2.2888 -0.0000 -0.0000 0.0000 -66.9166 -35.9972 21.3523 13.2466 -21.6475 -2.5436 -0.0000 -0.0000 43.9628 14.3475 12.9026 3.2688 -7.1250 0.0000 -0.0000 -11.7370 42.9753 0.5952 -0.0000 -0.0000 0.0000 64.6026 -39.7828 59.4723 -126.8771 54.1799 -91.3123 0.0000 -0.0000 -43.8711 -2.4370 -17.0124 0.7134 7.1250 -0.0000 -0.0000 23.6101 -45.5776 -0.3567
-0.3242 13.5075 -36.4438 -19.2341 -28.0528 11.9106 0.0000 0.0000 0.0000 13.0315 13.3369 -71.9122 15.9632 19.6047 78.1222 -0.1040 -9.2699 -4.4056 0.0163 0.8246 2.2664 0.0000 0.0000 0.0000 12.7633 -10.0161 10.6011 -3.4483 -11.3876 33.5984 -0.7065 -19.2660 -32.1744 -2.0173 8.9020 -25.4893 7.2794 0.8465 10.2700 5.8278 2.4206 -1.3815 1.6986 0.9918 -7.2248 1.4437 7.1751 -2.7377 2.5072 9.3623 5.9409 0.8084 4.7581 2.2795 -0.0000 -0.0000 0.0000 -66.8882 -36.0377 21.3652 13.2600 -21.6670 -2.5485 -0.0000 -0.0000 43.9499 14.2888 12.9240 3.2602 -7.1250 0.0000 -0.0000 -11.7945 42.9908 0.5937 -0.0000 -0.0000 0.0000 64.7429 -39.8528 59.4642 -126.6724 54.2525 -91.1462 0.0000 -0.0000 -44.0147 -2.7930 -16.1973 0.7797 7.1250 -0.0000 -0.0000 22.9648 -44.8720 0.0767
-0.3293 13.5059 -36.4372 -19.2901 -28.0508 11.9372 0.0000 0.0000 0.0000 13.1034 13.3364 -71.9210 15.9828 19.6086 78.1805 -0.0998 -9.2241 -4.4558 0.0138 0.7592 2.0865 0.0000 0.0000 0.0000 12.8242 -9.9848 10.6964 -3.4298 -11.3603 33.5049 -0.7167 -19.2184 -32.1839 -2.0050 8.8765 -25.4098 7.3227 0.8506 10.2681 5.8457 2.4311 -1.3710 1.6920 0.9958 -7.2115 1.4436 7.1660 -2.7693 2.5066 9.3493 5.9509 0.8096 4.7518 2.2887 -0.0000 0.0000 0.0000 -66.8984 -36.1048 21.3032 13.2407 -21.6388 -2.5414 -0.0000 -0.0000 43.8588 14.2480 12.8523 3.2329 -7.1250 0.0000 -0.0000 -11.8126 42.9146 0.6172 -0.0000 0.0000 0.0000 64.8439 -39.8648 59.3680 -126.6827 54.2489 -91.1546 0.0000 -0.0000 -44.0042 -2.6717 -16.3362 0.7520 7.1250 -0.0000 -0.0000 23.1264 -44.9855 0.0088
-0.3345 13.5048 -36.4296 -19.3192 -28.0405 11.9688 0.0000 0.0000 0.0000 13.1487 13.3171 -71.9427 16.0014 19.6123 78.2358 -0.0951 -9.1703 -4.5092 0.0114 0.6885 1.8922 0.0000 0.0000 0.0000 12.8591 -9.9798 10.7685 -3.4105 -11.3317 33.4069 -0.7188 -19.1955 -32.1713 -1.9988 8.8637 -25.3698 7.3591 0.8500 10.2327 5.8533 2.4304 -1.3649 1.6803 0.9948 -7.1836 1.4496 7.1569 -2.7748 2.4995 9.3373 5.9384 0.8060 4.7457 2.2863 -0.0000 -0.0000 0.0000 -66.8937 -36.1560 21.2605 13.2253 -21.6164 -2.5357 -0.0000 -0.0000 43.8349 14.2119 12.8182 3.2159 -7.1250 0.0000 -0.0000 -11.8361 42.8766 0.6297 -0.0000 -0.0000 0.0000 64.9379 -39.8899 59.3102 -126.6460 54.2618 -91.1248 0.0000 -0.0000 -44.0138 -2.6635 -16.2392 0.7453 7.1250 -0.0000 -0.0000 23.0943 -44.8953 0.0631
-0.3395 13.5037 -36.4227 -19.3425 -28.0286 11.9876 0.0000 0.0000 0.0000 13.1889 13.2946 -71.9558 16.0185 19.6156 78.2869 -0.0906 -9.1175 -4.5595 0.0096 0.6315 1.7353 0.0000 0.0000 0.0000 12.8873 -9.9810 10.8381 -3.3943 -11.3076 33.3244 -0.7171 -19.1913 -32.1557 -1.9956 8.8569 -25.3487 7.3838 0.8464 10.2099 5.8626 2.4256 -1.3574 1.6775 0.9922 -7.1622 1.4520 7.1497 -2.7758 2.4976 9.3279 5.9274 0.8045 4.7409 2.2831 -0.0000 0.0000 0.0000 -66.8888 -36.2076 21.2024 13.2009 -21.5809 -2.5267 -0.0000 -0.0000 43.8366 14.1578 12.7775 3.1932 -7.1250 0.0000 -0.0000 -11.8738 42.8302 0.6456 -0.0000 0.0000 0.0000 65.0100 -39.8993 59.2731 -126.6108 54.2742 -91.0963 0.0000 -0.0000 -44.0004 -2.6446 -16.1640 0.7367 7.1250 -0.0000 -0.0000 23.0805 -44.8240 0.1061
-0.3440 13.5027 -36.4163 -19.3628 -28.0260 12.0015 0.0000 0.0000 0.0000 13.2237 13.2799 -71.9630 16.0347 19.6188 78.3350 -0.0863 -9.0631 -4.6065 0.0082 0.5861 1.6106 0.0000 0.0000 0.0000 12.9060 -9.9829 10.9029 -3.3792 -11.2849 33.2470 -0.7141 -19.1904 -32.1358 -1.9940 8.8536 -25.3383 7.4007 0.8434 10.1976 5.8727 2.4223 -1.3519 1.6796 0.9904 -7.1491 1.4529 7.1437 -2.7663 2.4989 9.3201 5.9175 0.8038 4.7370 2.2781 0.0000 -0.0000 0.0000 -66.8846 -36.2567 21.1338 13.1656 -21.5293 -2.5137 -0.0000 -0.0000 43.8852 14.0977 12.7355 3.1689 -7.1250 0.0000 -0.0000 -11.9167 42.7820 0.6624 0.0000 -0.0000 0.0000 65.0635 -39.8993 59.2483 -126.5918 54.2809 -91.0808 0.0000 -0.0000 -43.9516 -2.6062 -16.1471 0.7253 7.1250 -0.0000 -0.0000 23.1071 -44.8040 0.1183
-0.3481 13.5019 -36.4101 -19.3777 -28.0295 12.0132 0.0000 0.0000 0.0000 13.2505 13.2698 -71.9674 16.0501 19.6217 78.3808 -0.0820 -9.0072 -4.6492 0.0073 0.5507 1.5132 0.0000 0.0000 0.0000 12.9145 -9.9902 10.9601 -3.3645 -11.2630 33.1721 -0.7085 -19.1984 -32.1103 -1.9958 8.8574 -25.3502 7.4111 0.8397 10.1864 5.8832 2.4175 -1.3490 1.6859 0.9880 -7.1399 1.4537 7.1403 -2.7425 2.4995 9.3163 5.9053 0.8022 4.7349 2.2698 0.0000 -0.0000 0.0000 -66.8803 -36.2979 21.0555 13.1212 -21.4645 -2.4974 -0.0000 -0.0000 43.9889 14.0352 12.6970 3.1449 -7.1250 0.0000 -0.0000 -11.9624 42.7370 0.6785 0.0000 -0.0000 0.0000 65.0958 -39.8929 59.2440 -126.5742 54.2871 -91.0665 0.0000 -0.0000 -43.8746 -2.5787 -16.1259 0.7167 7.1250 -0.0000 -0.0000 23.1224 -44.7814 0.1321
-0.3517 13.5014 -36.4041 -19.3923 -28.0395 12.0274 0.0000 0.0000 0.0000 13.2737 13.2676 -71.9710 16.0647 19.6246 78.4245 -0.0780 -8.9516 -4.6883 0.0064 0.5185 1.4248 0.0000 0.0000 0.0000 12.9172 -10.0010 11.0097 -3.3502 -11.2415 33.0987 -0.7043 -19.2024 -32.0881 -1.9993 8.8646 -25.3726 7.4215 0.8367 10.1742 5.8945 2.4138 -1.3488 1.6929 0.9862 -7.1330 1.4546 7.1384 -2.7125 2.4989 9.3144 5.8982 0.8002 4.7337 2.2621 -0.0000 -0.0000 0.0000 -66.8793 -36.3333 20.9702 13.0695 -21.3889 -2.4786 -0.0000 -0.0000 44.1420 13.9789 12.6561 3.1219 -7.1250 0.0000 -0.0000 -12.0019 42.6903 0.6948 -0.0000 -0.0000 0.0000 65.1153 -39.8841 59.2486 -126.5595 54.2923 -91.0546 0.0000 -0.0000 -43.7777 -2.5657 -16.1027 0.7121 7.1250 -0.0000 -0.0000 23.1244 -44.7584 0.1460
-0.3548 13.5011 -36.3982 -19.4039 -28.0564 12.0464 0.0000 0.0000 0.0000 13.2898 13.2714 -71.9770 16.0787 19.6273 78.4661 -0.0739 -8.8936 -4.7259 0.0056 0.4828 1.3265 0.0000 0.0000 0.0000 12.9123 -10.0119 11.0488 -3.3362 -11.2204 33.0267 -0.7016 -19.2004 -32.0689 -2.0036 8.8735 -25.4003 7.4336 0.8367 10.1576 5.9045 2.4142 -1.3519 1.6971 0.9861 -7.1268 1.4559 7.1360 -2.6787 2.4966 9.3120 5.8958 0.7976 4.7323 2.2554 -0.0000 0.0000 0.0000 -66.8842 -36.3643 20.8892 13.0143 -21.3082 -2.4585 -0.0000 -0.0000 44.3216 13.9372 12.6116 3.1015 -7.1250 0.0000 -0.0000 -12.0277 42.6414 0.7111 -0.0000 0.0000 0.0000 65.1310 -39.8780 59.2500 -126.5536 54.2943 -91.0498 0.0000 -0.0000 -43.6757 -2.5590 -16.0785 0.7092 7.1250 -0.0000 -0.0000 23.1205 -44.7354 0.1598
-0.3571 13.5011 -36.3926 -19.4130 -28.0773 12.0719 0.0000 0.0000 0.0000 13.3003 13.2773 -71.9874 16.0915 19.6297 78.5041 -0.0699 -8.8335 -4.7624 0.0049 0.4502 1.2372 0.0000 0.0000 0.0000 12.9022 -10.0201 11.0763 -3.3230 -11.2004 32.9588 -0.7044 -19.1784 -32.0619 -2.0059 8.8784 -25.4158 7.4509 0.8395 10.1360 5.9118 2.4183 -1.3562 1.6949 0.9876 -7.1188 1.4589 7.1326 -2.6525 2.4936 9.3078 5.9025 0.7951 4.7301 2.2532 0.0000 0.0000 0.0000 -66.8929 -36.3939 20.8123 12.9609 -21.2298 -2.4391 -0.0000 -0.0000 44.5065 13.9183 12.5569 3.0840 -7.1250 0.0000 -0.0000 -12.0310 42.5847 0.7284 0.0000 0.0000 0.0000 65.1509 -39.8728 59.2390 -126.5536 54.2943 -91.0498 0.0000 -0.0000 -43.5860 -2.5561 -16.0596 0.7076 7.1250 -0.0000 -0.0000 23.1155 -44.7178 0.1704
